<?xml version="1.0" standalone="no"?>
<!DOCTYPE svg PUBLIC "-//W3C//DTD SVG 20010904//EN"
 "http://www.w3.org/TR/2001/REC-SVG-20010904/DTD/svg10.dtd">
<svg version="1.0" xmlns="http://www.w3.org/2000/svg"
 width="512.000000pt" height="512.000000pt" viewBox="0 0 512.000000 512.000000"
 preserveAspectRatio="xMidYMid meet">

<g transform="translate(0.000000,512.000000) scale(0.100000,-0.100000)"
fill="#000000" stroke="none">
<path d="M279 4300 c-105 -18 -197 -89 -247 -189 l-27 -56 0 -1490 0 -1490 27
-57 c50 -106 146 -179 263 -198 83 -13 147 2 225 54 36 24 472 321 970 660
l905 618 5 -529 c6 -538 7 -549 48 -628 80 -157 306 -228 453 -143 92 53 2085
1436 2120 1471 21 21 51 64 66 95 24 49 28 69 27 137 -1 107 -31 183 -94 245
-25 25 -377 272 -780 550 -404 278 -866 595 -1026 706 -160 110 -308 208 -328
218 -56 27 -139 37 -204 25 -113 -21 -200 -89 -251 -198 l-26 -56 -5 -537 -5
-538 -905 622 c-498 342 -930 636 -960 655 -80 49 -167 68 -251 53z m1069
-1016 c554 -383 1013 -703 1020 -712 10 -13 10 -18 0 -28 -34 -33 -2006 -1388
-2025 -1392 l-23 -4 0 1416 c0 998 3 1416 11 1416 6 0 463 -313 1017 -696z
m2045 253 c1222 -844 1387 -960 1387 -976 -1 -9 -33 -38 -73 -65 -40 -28 -490
-340 -1002 -695 -511 -354 -940 -646 -952 -649 l-23 -4 0 1416 c0 998 3 1416
11 1416 6 0 299 -199 652 -443z"/>
</g>
</svg>
