<?xml version="1.0" standalone="no"?>
<!DOCTYPE svg PUBLIC "-//W3C//DTD SVG 20010904//EN"
 "http://www.w3.org/TR/2001/REC-SVG-20010904/DTD/svg10.dtd">
<svg version="1.0" xmlns="http://www.w3.org/2000/svg"
 width="512.000000pt" height="512.000000pt" viewBox="0 0 512.000000 512.000000"
 preserveAspectRatio="xMidYMid meet">

<g transform="translate(0.000000,512.000000) scale(0.100000,-0.100000)"
fill="#000000" stroke="none">
<path d="M753 4780 c-126 -33 -235 -105 -310 -205 -60 -79 -80 -122 -104 -212
-18 -71 -19 -115 -19 -646 0 -569 0 -569 22 -609 60 -107 210 -110 273 -6 19
32 20 55 25 613 5 571 5 581 27 620 25 47 74 95 123 121 33 18 74 19 615 24
648 6 620 2 666 77 47 76 21 176 -59 221 l-40 22 -573 -1 c-528 0 -580 -2
-646 -19z"/>
<path d="M3108 4780 c-106 -57 -110 -213 -6 -275 32 -19 55 -20 613 -25 571
-5 581 -5 620 -27 47 -25 95 -74 121 -123 18 -33 19 -74 24 -615 5 -574 5
-580 27 -615 66 -105 219 -97 273 14 21 44 21 51 18 633 -3 577 -4 589 -26
654 -57 170 -201 314 -371 372 -65 22 -75 22 -661 24 -573 2 -596 2 -632 -17z"/>
<path d="M439 2091 c-45 -15 -80 -43 -100 -83 -19 -37 -20 -57 -17 -631 3
-582 4 -593 25 -658 58 -169 203 -314 372 -371 65 -22 77 -23 651 -26 524 -3
589 -1 628 14 118 45 130 213 20 279 -32 19 -55 20 -613 25 -541 5 -582 6
-615 24 -49 26 -98 74 -123 121 -22 39 -22 49 -27 620 -5 558 -6 581 -25 613
-35 58 -116 92 -176 73z"/>
<path d="M4599 2091 c-42 -14 -79 -42 -97 -75 -15 -28 -18 -90 -22 -611 -5
-571 -5 -581 -27 -620 -25 -47 -74 -95 -123 -121 -33 -18 -74 -19 -615 -24
-648 -6 -620 -2 -666 -77 -49 -79 -19 -182 65 -223 44 -21 51 -21 633 -18 577
3 589 4 654 26 170 57 314 201 371 371 22 65 23 77 26 654 3 582 3 589 -18
633 -33 67 -115 106 -181 85z"/>
</g>
</svg>
