<?xml version="1.0" standalone="no"?>
<!DOCTYPE svg PUBLIC "-//W3C//DTD SVG 20010904//EN"
 "http://www.w3.org/TR/2001/REC-SVG-20010904/DTD/svg10.dtd">
<svg version="1.0" xmlns="http://www.w3.org/2000/svg"
 width="512.000000pt" height="512.000000pt" viewBox="0 0 512.000000 512.000000"
 preserveAspectRatio="xMidYMid meet">

<g transform="translate(0.000000,512.000000) scale(0.100000,-0.100000)"
fill="#000000" stroke="none">
<path d="M2353 4373 c-24 -15 -530 -416 -1126 -890 -1171 -931 -1120 -886
-1120 -983 0 -96 -51 -51 1140 -998 607 -482 1116 -882 1131 -889 60 -27 152
-11 206 36 53 46 51 15 56 854 l5 779 1035 -823 c569 -453 1051 -831 1070
-842 54 -28 139 -20 187 20 21 16 47 45 58 64 20 34 20 52 20 1789 0 965 -3
1767 -8 1782 -10 38 -65 98 -104 114 -41 18 -105 18 -146 0 -18 -7 -500 -385
-1072 -840 l-1040 -827 -5 778 c-6 868 -1 812 -76 870 -30 22 -49 28 -103 31
-59 3 -71 0 -108 -25z m122 -1873 c0 -1634 -1 -1735 -17 -1738 -11 -2 -424
320 -1103 859 -825 656 -1085 868 -1083 882 4 27 2157 1737 2183 1734 20 -2
20 -9 20 -1737z m2379 1724 c8 -20 8 -3428 0 -3448 -3 -9 -14 -16 -23 -16 -22
1 -2186 1723 -2186 1740 0 18 2164 1740 2186 1740 9 0 20 -7 23 -16z"/>
</g>
</svg>
